[20:16:32] gtkgui: HandBrake 0.10.1 (2015032200) - Linux x86_64 - https://handbrake.fr
[20:16:32] hb_init: starting libhb thread
[20:16:32] hb_init: starting libhb thread
libdvdread: Encrypted DVD support unavailable.
[20:16:32] CPU: AMD Phenom(tm) II X6 1090T Processor
[20:16:32]  - logical processor count: 6
[20:16:32] OpenCL: library not available
[20:16:32] hb_scan: path=/home/midfingr/Videos/test.m4v, title_index=0
index_parse.c:190: indx_parse(): error opening /home/midfingr/Videos/test.m4v/BDMV/index.bdmv
index_parse.c:190: indx_parse(): error opening /home/midfingr/Videos/test.m4v/BDMV/BACKUP/index.bdmv
bluray.c:2365: nav_get_title_list(/home/midfingr/Videos/test.m4v) failed
[20:16:32] bd: not a bd - trying as a stream/file instead
libdvdnav: Using dvdnav version 5.0.2
libdvdread: Encrypted DVD support unavailable.
libdvdread:DVDOpenFileUDF:UDFFindFile /VIDEO_TS/VIDEO_TS.IFO failed
libdvdread:DVDOpenFileUDF:UDFFindFile /VIDEO_TS/VIDEO_TS.BUP failed
libdvdread: Can't open file VIDEO_TS.IFO.
libdvdnav: vm: failed to read VIDEO_TS.IFO
[20:16:32] dvd: not a dvd - trying as a stream/file instead
Input #0, mov,mp4,m4a,3gp,3g2,mj2, from '/home/midfingr/Videos/test.m4v':
  Metadata:
    major_brand     : mp42
    minor_version   : 512
    compatible_brands: isomiso2avc1mp41
    title           : test
    encoder         : HandBrake 0.10.1 2015032200
  Duration: 00:01:04.34, start: 0.000000, bitrate: 931 kb/s
    Stream #0.0(und): Video: h264 (Main), yuv420p, 1920x1080 [PAR 1:1 DAR 16:9], 763 kb/s, 28.92 fps, 90k tbn, 180k tbc (default)
    Stream #0.1(und): Audio: aac, 48000 Hz, stereo, fltp, 160 kb/s (default)
[20:16:32] scan: decoding previews for title 1
[20:16:32] scan: audio 0x1: aac, rate=48000Hz, bitrate=160672 Unknown (AAC) (2.0 ch)
[20:16:33] scan: 10 previews, 1920x1080, 29.980 fps, autocrop = 0/0/0/0, aspect 16:9, PAR 1:1
[20:16:33] Title is likely interlaced or telecined (7 out of 10 previews). You should do something about that.
[20:16:33] libhb: scan thread found 1 valid title(s)
libdvdread: Encrypted DVD support unavailable.
